<svg xmlns="http://www.w3.org/2000/svg" xmlns:xlink="http://www.w3.org/1999/xlink" width="292.137" height="510.016" viewBox="0 0 292.137 510.016"><defs><pattern id="a" preserveAspectRatio="xMidYMid slice" width="100%" height="100%" viewBox="0 0 2930 5110"><image width="2930" height="5110" xlink:href="Layer%2016-image.png"/></pattern></defs><path d="M115.971,499.474,18.137,421.352A48.244,48.244,0,0,1,0,383.652V126.34a48.238,48.238,0,0,1,18.145-37.7l97.826-78.1a48.235,48.235,0,0,1,60.191,0L274,88.678a48.237,48.237,0,0,1,18.137,37.7V383.652A48.244,48.244,0,0,1,274,421.352l-97.834,78.122a48.235,48.235,0,0,1-60.195,0" transform="translate(0 0)" fill="url(#a)"/></svg>