<svg xmlns="http://www.w3.org/2000/svg" width="25.876" height="18.415" viewBox="0 0 25.876 18.415"><g transform="translate(1 1)"><path d="M22.981,12.626a2.823,2.823,0,0,0-2.089-.9H6.342L3.581,8.3a.679.679,0,0,0-.6-.3H.746a.679.679,0,0,0-.6.3A1,1,0,0,0,0,8.97l2.238,8.208a.9.9,0,0,0,.746.522H7.76L5.3,22.624a.871.871,0,0,0,0,.746,1.111,1.111,0,0,0,.672.3H8.954a.581.581,0,0,0,.522-.224L14.624,17.7h6.268a2.709,2.709,0,0,0,2.089-.9,2.946,2.946,0,0,0,.9-2.089A2.823,2.823,0,0,0,22.981,12.626Z" transform="translate(0 -7.254)" fill="none" stroke="#272727" stroke-width="2"/><path d="M9.8,9.477h6.342L12.334,5.224a.847.847,0,0,0-.6-.224H8.752a.89.89,0,0,0-.672.373,1.035,1.035,0,0,0,0,.672Z" transform="translate(-0.545 -5)" fill="none" stroke="#272727" stroke-width="2"/></g></svg>