<svg xmlns="http://www.w3.org/2000/svg" width="49.616" height="44.144" viewBox="0 0 49.616 44.144"><g transform="translate(-5.425 0)" fill="none"><path d="M20.1,0a4.544,4.544,0,0,0-3.934,2.27L6.035,19.8a4.544,4.544,0,0,0,0,4.548l10.13,17.528a4.544,4.544,0,0,0,3.934,2.27H40.367a4.544,4.544,0,0,0,3.934-2.27l10.13-17.528a4.544,4.544,0,0,0,0-4.548L44.3,2.27A4.544,4.544,0,0,0,40.367,0Z" stroke="none"/><path d="M 20.09898376464844 1.999996185302734 C 19.19341278076172 1.999996185302734 18.3493537902832 2.487075805664062 17.89620208740234 3.271125793457031 L 7.766281127929688 20.79882621765137 C 7.312450408935547 21.5841064453125 7.312450408935547 22.55975532531738 7.766281127929688 23.34502601623535 L 17.89619064331055 40.87272644042969 C 18.34934234619141 41.65679550170898 19.19341278076172 42.14386749267578 20.09899139404297 42.14386749267578 L 40.36690139770508 42.14386749267578 C 41.27248382568359 42.14386749267578 42.11654281616211 41.65679550170898 42.56967926025391 40.87274551391602 L 52.69961166381836 23.34503555297852 C 53.15345001220703 22.55975532531738 53.15345001220703 21.58411598205566 52.69961166381836 20.79883575439453 L 42.56967163085938 3.271125793457031 C 42.11653137207031 2.487064361572266 41.27248382568359 1.999996185302734 40.36690139770508 1.999996185302734 L 20.09898376464844 1.999996185302734 M 20.09898376464844 -3.814697265625e-06 L 40.36690139770508 -3.814697265625e-06 C 41.98966217041016 -3.814697265625e-06 43.48928070068359 0.8653640747070312 44.30128479003906 2.270366668701172 L 54.43122100830078 19.79807472229004 C 55.24431228637695 21.2049560546875 55.24431228637695 22.93891525268555 54.43122100830078 24.34579658508301 L 44.30129241943359 41.87350463867188 C 43.48928070068359 43.27850723266602 41.98966979980469 44.14386749267578 40.36690139770508 44.14386749267578 L 20.09899139404297 44.14386749267578 C 18.47622299194336 44.14386749267578 16.97661209106445 43.27850723266602 16.16459274291992 41.87350463867188 L 6.034671783447266 24.34578514099121 C 5.221591949462891 22.93891525268555 5.221591949462891 21.2049560546875 6.034671783447266 19.79807472229004 L 16.16459274291992 2.270366668701172 C 16.97661209106445 0.8653640747070312 18.47622299194336 -3.814697265625e-06 20.09898376464844 -3.814697265625e-06 Z" stroke="none" fill="#fff"/></g><path d="M-1039.79,14237.813l-6.16,6.16,6.16,6.16" transform="translate(1066.431 -14221.901)" fill="none" stroke="#fff" stroke-width="2"/></svg>