<svg xmlns="http://www.w3.org/2000/svg" width="49.616" height="44.144" viewBox="0 0 49.616 44.144"><g transform="translate(-5.425 0)" fill="none"><path d="M40.367,0A4.544,4.544,0,0,1,44.3,2.27L54.431,19.8a4.544,4.544,0,0,1,0,4.548L44.3,41.873a4.544,4.544,0,0,1-3.934,2.27H20.1a4.544,4.544,0,0,1-3.934-2.27L6.035,24.346a4.544,4.544,0,0,1,0-4.548L16.165,2.27A4.544,4.544,0,0,1,20.1,0Z" stroke="none"/><path d="M 20.09900283813477 2.000003814697266 C 19.19341278076172 2.000003814697266 18.34936141967773 2.487064361572266 17.89623260498047 3.271121978759766 L 7.766281127929688 20.79871368408203 C 7.312450408935547 21.5839729309082 7.312450408935547 22.55959320068359 7.766292572021484 23.34485244750977 L 17.89622116088867 40.87244415283203 C 18.3493537902832 41.65650177001953 19.19341278076172 42.14356231689453 20.09900283813477 42.14356231689453 L 40.36691284179688 42.14356231689453 C 41.27249145507812 42.14356231689453 42.11655426025391 41.656494140625 42.56969451904297 40.87244415283203 L 52.69962310791016 23.34485244750977 C 53.15345001220703 22.55959320068359 53.15345001220703 21.5839729309082 52.69962310791016 20.79871368408203 L 42.5697021484375 3.271133422851562 C 42.11655426025391 2.487071990966797 41.27249145507812 2.000003814697266 40.36691284179688 2.000003814697266 L 20.09900283813477 2.000003814697266 M 20.09900283813477 3.814697265625e-06 L 40.36691284179688 3.814697265625e-06 C 41.98966979980469 3.814697265625e-06 43.48928070068359 0.8653526306152344 44.30130004882812 2.270351409912109 L 54.43123245239258 19.79794311523438 C 55.24431228637695 21.20480346679688 55.24431228637695 22.93876266479492 54.43123245239258 24.34562301635742 L 44.30130004882812 41.87321472167969 C 43.48928070068359 43.27820205688477 41.98966979980469 44.14356231689453 40.36691284179688 44.14356231689453 L 20.09900283813477 44.14356231689453 C 18.47622299194336 44.14356231689453 16.97661209106445 43.27820205688477 16.16461181640625 41.87321472167969 L 6.034683227539062 24.34562301635742 C 5.221591949462891 22.93876266479492 5.221591949462891 21.20480346679688 6.034683227539062 19.79794311523438 L 16.16462326049805 2.270351409912109 C 16.97662353515625 0.8653526306152344 18.47623062133789 3.814697265625e-06 20.09900283813477 3.814697265625e-06 Z" stroke="none" fill="#f9fbfc"/></g><path d="M-1045.95,14237.813l6.16,6.16-6.16,6.16" transform="translate(1068.925 -14221.901)" fill="none" stroke="#f9fbfc" stroke-width="2"/></svg>