<svg xmlns="http://www.w3.org/2000/svg" width="17.987" height="20.734" viewBox="0 0 17.987 20.734"><g transform="translate(1 1)"><path d="M4,7.163C4,5.2,4,4.219,4.585,3.61S6.113,3,8,3H15.99c1.884,0,2.826,0,3.411.61s.585,1.591.585,3.554V15.49c0,2.944,0,4.416-.878,5.33s-2.291.915-5.117.915H10c-2.826,0-4.239,0-5.117-.915S4,18.433,4,15.49Z" transform="translate(-4 -3)" fill="none" stroke="#272727" stroke-width="2"/><path d="M17.85,18v4.425M9,18v4.425" transform="translate(-5.431 -3.69)" fill="none" stroke="#272727" stroke-linecap="round" stroke-width="2"/><path d="M9,8h8.85" transform="translate(-5.431 -2.796)" fill="none" stroke="#272727" stroke-linecap="round" stroke-width="2"/><path d="M9,12h8.85" transform="translate(-5.431 -2.633)" fill="none" stroke="#272727" stroke-linecap="round" stroke-width="2"/></g></svg>