<svg xmlns="http://www.w3.org/2000/svg" width="23.102" height="20.144" viewBox="0 0 23.102 20.144"><path d="M23.1,8.606a1.776,1.776,0,0,0-.9-1.545l-9.73-5.775a1.833,1.833,0,0,0-1.848,0L.882,7.061a1.8,1.8,0,0,0,0,3.1l2.772,1.617v4.057a1.848,1.848,0,0,0,.9,1.574l6.136,3.537a1.848,1.848,0,0,0,1.79,0l6.136-3.537a1.848,1.848,0,0,0,.9-1.574v-4.1l1.79-1.054v3.927h1.8Zm-5.385,7.218L11.55,19.376,5.458,15.839V12.85l5.168,3.075a1.862,1.862,0,0,0,1.848,0L17.7,12.807ZM11.55,14.366,1.806,8.592,11.55,2.8l9.745,5.775Z" transform="translate(0.002 -1.037)" fill="#272727"/></svg>