<svg xmlns="http://www.w3.org/2000/svg" width="20.205" height="20.205" viewBox="0 0 20.205 20.205">
  <g id="Group_208" data-name="Group 208" transform="translate(-17.659 -15.134)">
    <g id="logo-instagram-svgrepo-com" transform="translate(17.659 15.134)">
      <g id="Group_205" data-name="Group 205" transform="translate(0 0)">
        <ellipse id="Ellipse_14" data-name="Ellipse 14" cx="1.212" cy="1.212" rx="1.212" ry="1.212" transform="translate(14.283 3.497)" fill="#dff466"/>
        <path id="Path_538" data-name="Path 538" d="M15.026,9.838a5.188,5.188,0,1,0,5.188,5.188A5.188,5.188,0,0,0,15.026,9.838Zm0,8.555a3.367,3.367,0,1,1,3.367-3.367A3.367,3.367,0,0,1,15.026,18.393Z" transform="translate(-4.923 -4.924)" fill="#dff466"/>
        <path id="Path_539" data-name="Path 539" d="M14.1,5.82c2.7,0,3.017.01,4.082.059a5.591,5.591,0,0,1,1.876.348,3.346,3.346,0,0,1,1.917,1.917,5.592,5.592,0,0,1,.348,1.876c.049,1.065.059,1.385.059,4.082s-.01,3.017-.059,4.082a5.592,5.592,0,0,1-.348,1.876,3.346,3.346,0,0,1-1.917,1.917,5.591,5.591,0,0,1-1.876.348c-1.065.049-1.385.059-4.082.059s-3.017-.01-4.082-.059a5.591,5.591,0,0,1-1.876-.348,3.346,3.346,0,0,1-1.917-1.917,5.592,5.592,0,0,1-.348-1.876C5.831,17.119,5.82,16.8,5.82,14.1s.01-3.017.059-4.082a5.592,5.592,0,0,1,.348-1.876A3.346,3.346,0,0,1,8.144,6.227a5.591,5.591,0,0,1,1.876-.348C11.085,5.831,11.4,5.82,14.1,5.82M14.1,4c-2.744,0-3.088.012-4.165.061a7.414,7.414,0,0,0-2.452.47A5.166,5.166,0,0,0,4.53,7.485a7.414,7.414,0,0,0-.47,2.452C4.012,11.015,4,11.359,4,14.1s.012,3.088.061,4.165a7.415,7.415,0,0,0,.47,2.452,5.166,5.166,0,0,0,2.955,2.955,7.414,7.414,0,0,0,2.452.47c1.077.049,1.421.06,4.165.06s3.088-.012,4.165-.061a7.415,7.415,0,0,0,2.452-.47,5.166,5.166,0,0,0,2.955-2.955,7.415,7.415,0,0,0,.47-2.452c.049-1.077.06-1.421.06-4.165s-.012-3.088-.061-4.165a7.414,7.414,0,0,0-.47-2.452,5.166,5.166,0,0,0-2.955-2.955,7.415,7.415,0,0,0-2.452-.47C17.19,4.012,16.846,4,14.1,4Z" transform="translate(-4 -4)" fill="#dff466"/>
      </g>
    </g>
  </g>
</svg>
