<svg xmlns="http://www.w3.org/2000/svg" width="18.026" height="17.951" viewBox="0 0 18.026 17.951">
  <g id="Group_209" data-name="Group 209" transform="translate(-18.919 -16.396)">
    <g id="logo-linkedin-svgrepo-com" transform="translate(18.919 16.397)">
      <path id="Path_540" data-name="Path 540" d="M20.674,4H5.352A1.332,1.332,0,0,0,4,5.277v15.4a1.332,1.332,0,0,0,1.352,1.277H20.674a1.332,1.332,0,0,0,1.352-1.277V5.277A1.332,1.332,0,0,0,20.674,4ZM9.333,19.322H6.7V10.76H9.333ZM8.056,9.558A1.586,1.586,0,0,1,6.479,7.981,1.54,1.54,0,0,1,8.056,6.4a1.577,1.577,0,0,1,0,3.155ZM19.4,19.247H16.768V15.041c0-.976,0-2.328-1.427-2.328s-1.577,1.127-1.577,2.178v4.281H11.135V10.76h2.479v1.127h.075a2.93,2.93,0,0,1,2.554-1.427c2.7,0,3.23,1.8,3.23,4.131v4.657Z" transform="translate(-4 -4)" fill="#dff466"/>
    </g>
  </g>
</svg>
