<svg xmlns="http://www.w3.org/2000/svg" width="178.044" height="67.707" viewBox="0 0 178.044 67.707">
  <g id="Group_204" data-name="Group 204" transform="translate(-818.479 -769.823)">
    <g id="Group_5" data-name="Group 5" transform="translate(901.648 779.489)">
      <path id="Path_53" data-name="Path 53" d="M958.969,820.753a21.491,21.491,0,0,1-8.557-1.64l1.4-3.5a17.392,17.392,0,0,0,7.315,1.6c2.66,0,4.078-.488,4.078-1.4,0-.621-.51-.909-1.884-1.086l-4.566-.6c-3.946-.51-5.742-1.951-5.742-4.567,0-3.192,3.147-5.165,8.246-5.165a19.18,19.18,0,0,1,7.891,1.53l-1.374,3.3a17.364,17.364,0,0,0-6.783-1.307c-2.371,0-3.569.465-3.569,1.374,0,.576.51.886,2.371,1.13l4.257.576c3.68.488,5.564,1.817,5.564,4.5,0,3.391-3.081,5.253-8.645,5.253" transform="translate(-950.413 -792.266)" fill="#f9fbfc"/>
      <path id="Path_54" data-name="Path 54" d="M996.684,804.887v3.7h-6.317v12.036h-4.345V808.588h-6.317v-3.7Z" transform="translate(-961.24 -792.449)" fill="#f9fbfc"/>
      <path id="Path_55" data-name="Path 55" d="M1018.471,820.935c-5.919,0-9.088-2.527-9.088-7.248v-8.8h4.345v8.379c0,2.681,1.706,4.078,4.744,4.078s4.744-1.4,4.744-4.078v-8.379h4.344v8.8c0,4.721-3.169,7.248-9.088,7.248" transform="translate(-972.209 -792.449)" fill="#f9fbfc"/>
      <path id="Path_56" data-name="Path 56" d="M1051.761,804.887c5.475,0,8.756,2.881,8.756,7.847,0,5.01-3.237,7.891-8.69,7.891H1042.3V804.887Zm4.3,7.847c0-2.815-1.817-4.345-4.9-4.345h-4.522v8.733h4.522c3.081,0,4.9-1.551,4.9-4.389" transform="translate(-984.374 -792.449)" fill="#f9fbfc"/>
      <path id="Path_57" data-name="Path 57" d="M1078,820.625v-5.431l-7.359-10.307h5.076l4.61,6.783,4.611-6.783h4.788l-7.382,10.307v5.431Z" transform="translate(-994.85 -792.449)" fill="#f9fbfc"/>
      <path id="Path_58" data-name="Path 58" d="M958.526,851.625l-8.113-15.738h5.01l5.3,11.35,5.32-11.35h4.744l-8.09,15.738Z" transform="translate(-950.413 -803.907)" fill="#f9fbfc"/>
      <rect id="Rectangle_9" data-name="Rectangle 9" width="4.345" height="15.738" transform="translate(21.635 31.98)" fill="#f9fbfc"/>
      <path id="Path_59" data-name="Path 59" d="M1003.416,851.753a21.488,21.488,0,0,1-8.557-1.64l1.4-3.5a17.388,17.388,0,0,0,7.315,1.6c2.66,0,4.079-.487,4.079-1.4,0-.621-.51-.909-1.884-1.086l-4.566-.6c-3.946-.51-5.742-1.95-5.742-4.567,0-3.192,3.148-5.165,8.246-5.165a19.188,19.188,0,0,1,7.891,1.53l-1.374,3.3a17.366,17.366,0,0,0-6.783-1.308c-2.371,0-3.569.466-3.569,1.375,0,.576.509.886,2.371,1.13l4.256.576c3.68.488,5.564,1.818,5.564,4.5,0,3.391-3.081,5.253-8.645,5.253" transform="translate(-966.841 -803.724)" fill="#f9fbfc"/>
      <path id="Path_60" data-name="Path 60" d="M1041.132,835.887v3.7h-6.318v12.037h-4.345V839.589h-6.317v-3.7Z" transform="translate(-977.668 -803.907)" fill="#f9fbfc"/>
      <path id="Path_61" data-name="Path 61" d="M1047.817,851.626l8.246-15.739h4.655l8.246,15.739h-4.943l-1.463-2.97h-8.534l-1.441,2.97Zm13.123-6.3-2.682-5.453-2.638,5.453Z" transform="translate(-986.415 -803.907)" fill="#f9fbfc"/>
      <path id="Path_62" data-name="Path 62" d="M960,785.156v1.267h-4.074v8h-1.436v-8h-4.074v-1.267Z" transform="translate(-950.413 -785.156)" fill="#f9fbfc"/>
      <path id="Path_63" data-name="Path 63" d="M977.415,785.156v9.27H975.98v-4.113h-6.92v4.113h-1.436v-9.27h1.436v3.891h6.92v-3.891Z" transform="translate(-956.774 -785.156)" fill="#f9fbfc"/>
      <path id="Path_64" data-name="Path 64" d="M995.526,785.156v1.267h-7.7v2.638h6.424v1.266h-6.424v2.833h7.7v1.266h-9.139v-9.27Z" transform="translate(-963.709 -785.156)" fill="#f9fbfc"/>
    </g>
    <path id="Path_65" data-name="Path 65" d="M868.526,776.847l23.446,11.475V781.3l-23.446-11.475,0,0-50.042,24.488,8.015,3.922-.151,17.172,3.2-2.039,3.2,5.369V801.293l6.02,2.946v18.725l29.761,14.566,23.451-11.479v-7.024L868.521,830.5l-23.453-11.477v-11.7L868.521,818.8l0,0,23.446-11.473v-7.149L868.521,788.7l-23.575,11.537-12.112-5.926,35.688-17.464Zm0,18.881,16.4,8.026-16.4,8.024,0,0-16.4-8.022Z" fill="#f9fbfc"/>
  </g>
</svg>
