<svg xmlns="http://www.w3.org/2000/svg" width="139.162" height="52.921" viewBox="0 0 139.162 52.921"><g transform="translate(-818.479 -769.823)"><g transform="translate(883.485 777.378)"><path d="M957.1,817.181a16.794,16.794,0,0,1-6.688-1.282l1.091-2.738a13.591,13.591,0,0,0,5.718,1.248c2.079,0,3.188-.381,3.188-1.091,0-.485-.4-.711-1.473-.849L955.368,812c-3.084-.4-4.488-1.525-4.488-3.569,0-2.495,2.46-4.037,6.445-4.037a14.994,14.994,0,0,1,6.168,1.2l-1.074,2.581a13.571,13.571,0,0,0-5.3-1.022c-1.854,0-2.789.364-2.789,1.074,0,.45.4.693,1.854.883l3.327.45c2.876.381,4.349,1.42,4.349,3.518,0,2.651-2.408,4.106-6.757,4.106" transform="translate(-950.413 -794.915)" fill="#004a99"/><path d="M992.976,804.887v2.893h-4.938v9.408h-3.4V807.78h-4.938v-2.893Z" transform="translate(-965.272 -795.165)" fill="#004a99"/><path d="M1016.487,817.431c-4.626,0-7.1-1.975-7.1-5.665v-6.878h3.4v6.549c0,2.1,1.334,3.187,3.708,3.187s3.708-1.091,3.708-3.187v-6.549h3.4v6.878c0,3.69-2.477,5.665-7.1,5.665" transform="translate(-980.327 -795.165)" fill="#004a99"/><path d="M1049.694,804.887c4.28,0,6.844,2.252,6.844,6.133,0,3.916-2.53,6.168-6.792,6.168h-7.45v-12.3Zm3.361,6.133c0-2.2-1.421-3.4-3.829-3.4h-3.535v6.826h3.535c2.408,0,3.829-1.213,3.829-3.43" transform="translate(-997.023 -795.165)" fill="#004a99"/><path d="M1076.391,817.188v-4.245l-5.752-8.056h3.967l3.6,5.3,3.6-5.3h3.743l-5.77,8.056v4.245Z" transform="translate(-1011.401 -795.165)" fill="#004a99"/><path d="M956.754,848.188l-6.341-12.3h3.916l4.141,8.871,4.158-8.871h3.708l-6.324,12.3Z" transform="translate(-950.413 -810.891)" fill="#004a99"/><rect width="3.396" height="12.301" transform="translate(16.91 24.996)" fill="#004a99"/><path d="M1001.548,848.181a16.8,16.8,0,0,1-6.688-1.282l1.091-2.738a13.591,13.591,0,0,0,5.718,1.248c2.079,0,3.188-.381,3.188-1.091,0-.485-.4-.71-1.473-.849L999.815,843c-3.084-.4-4.488-1.524-4.488-3.569,0-2.495,2.46-4.037,6.445-4.037a15,15,0,0,1,6.168,1.2l-1.074,2.581a13.571,13.571,0,0,0-5.3-1.022c-1.854,0-2.789.364-2.789,1.075,0,.45.4.693,1.854.883l3.327.45c2.876.381,4.349,1.42,4.349,3.518,0,2.651-2.408,4.106-6.757,4.106" transform="translate(-972.96 -810.641)" fill="#004a99"/><path d="M1037.423,835.887v2.893h-4.938v9.408h-3.4V838.78h-4.937v-2.893Z" transform="translate(-987.819 -810.891)" fill="#004a99"/><path d="M1047.817,848.189l6.445-12.3h3.638l6.445,12.3h-3.863l-1.144-2.322h-6.671l-1.126,2.322Zm10.257-4.921-2.1-4.262-2.062,4.262Z" transform="translate(-999.824 -810.891)" fill="#004a99"/><path d="M957.9,785.156v.99h-3.184V792.4H953.6v-6.256h-3.184v-.99Z" transform="translate(-950.413 -785.156)" fill="#004a99"/><path d="M975.277,785.156V792.4h-1.122v-3.215h-5.409V792.4h-1.122v-7.245h1.122V788.2h5.409v-3.041Z" transform="translate(-959.143 -785.156)" fill="#004a99"/><path d="M993.53,785.156v.99h-6.021v2.062h5.021v.99h-5.021v2.214h6.021v.99h-7.143v-7.245Z" transform="translate(-968.662 -785.156)" fill="#004a99"/></g><path d="M857.6,775.313l18.326,8.969v-5.49L857.6,769.823h0l-39.114,19.14,6.265,3.066-.118,13.422,2.5-1.593,2.5,4.2V794.421l4.705,2.3v14.636l23.262,11.385,18.33-8.972v-5.49l-18.33,8.971-18.331-8.971v-9.146l18.331,8.969h0l18.326-8.968v-5.587l-18.33-8.972L839.166,793.6l-9.467-4.632,27.894-13.65Zm0,14.757,12.82,6.273L857.6,802.615l0,0-12.817-6.27Z" fill="#004a99"/></g></svg>