<svg xmlns="http://www.w3.org/2000/svg" width="22.847" height="17.634" viewBox="0 0 22.847 17.634">
  <path id="mail-alt-1-svgrepo-com" d="M23.068,8.35s-4.49,5.583-10.018,5.583S3.033,8.35,3.033,8.35M6.573,20.634H19.527a5.548,5.548,0,0,0,2.354-.243,2.233,2.233,0,0,0,.976-.976A5.548,5.548,0,0,0,23.1,17.06V8.573a5.548,5.548,0,0,0-.243-2.354,2.233,2.233,0,0,0-.976-.976A5.548,5.548,0,0,0,19.527,5H6.573a5.548,5.548,0,0,0-2.354.243,2.233,2.233,0,0,0-.976.976A5.549,5.549,0,0,0,3,8.573V17.06a5.549,5.549,0,0,0,.243,2.354,2.233,2.233,0,0,0,.976.976A5.548,5.548,0,0,0,6.573,20.634Z" transform="translate(-1.627 -4)" fill="none" stroke="#008ab5" stroke-linecap="round" stroke-linejoin="round" stroke-width="2"/>
</svg>
