<svg xmlns="http://www.w3.org/2000/svg" width="22.801" height="22.808" viewBox="0 0 22.801 22.808">
  <g id="call-dropped-svgrepo-com" transform="translate(1 1.002)">
    <path id="Path_568" data-name="Path 568" d="M17.505,16.34l-.526.554s-1.251,1.317-4.664-2.277-2.163-4.911-2.163-4.911l.331-.349a2.584,2.584,0,0,0,.181-3.246L9.207,4.051A2.314,2.314,0,0,0,5.612,3.7L3.8,5.612A2.665,2.665,0,0,0,3,7.582c.1,1.94.933,6.115,5.559,10.986,4.906,5.165,9.509,5.37,11.391,5.185a2.472,2.472,0,0,0,1.53-.819L23.126,21.2a2.6,2.6,0,0,0-.622-3.981L20.3,15.953A2.257,2.257,0,0,0,17.505,16.34Z" transform="translate(-3 -3)" fill="none" stroke="#008ab5" stroke-width="2"/>
  </g>
</svg>
