<svg xmlns="http://www.w3.org/2000/svg" width="19.591" height="15.92" viewBox="0 0 19.591 15.92">
  <g id="Group_210" data-name="Group 210" transform="translate(-17.659 -16.396)">
    <g id="logo-twitter-svgrepo-com" transform="translate(17.659 16.396)">
      <path id="Path_541" data-name="Path 541" d="M11.162,22.983A11.363,11.363,0,0,0,22.6,11.549c0-.178,0-.347,0-.525a8.371,8.371,0,0,0,1.995-2.075,8.291,8.291,0,0,1-2.306.632,4.061,4.061,0,0,0,1.781-2.226,7.917,7.917,0,0,1-2.547.98,4.025,4.025,0,0,0-6.857,3.66A11.39,11.39,0,0,1,6.38,7.8a4.016,4.016,0,0,0,1.247,5.343,3.981,3.981,0,0,1-1.781-.5v.045a4.034,4.034,0,0,0,3.161,3.963,4.034,4.034,0,0,1-1.781.071,4.016,4.016,0,0,0,3.722,2.752,8.059,8.059,0,0,1-5,1.781A8.7,8.7,0,0,1,5,21.175a11.372,11.372,0,0,0,6.162,1.781" transform="translate(-5 -7.063)" fill="#dff466"/>
    </g>
  </g>
</svg>
