<svg xmlns="http://www.w3.org/2000/svg" width="21.162" height="21.162" viewBox="0 0 21.162 21.162"><path d="M5.129,8.323v9.6m4.258-9.6V17.9m6.387-9.581V17.9m4.258-9.581v9.6m-14.9,0c.335-.02.747-.02,1.277-.02H18.756c.53,0,.943,0,1.277.02m-14.9,0a2.4,2.4,0,0,0-.967.212,2.129,2.129,0,0,0-.93.93A5.289,5.289,0,0,0,3,21.31v.852H22.162V21.31a5.289,5.289,0,0,0-.232-2.244,2.129,2.129,0,0,0-.93-.93,2.4,2.4,0,0,0-.967-.212M3,5.661V8.323H22.162V5.661L12.581,3Z" transform="translate(-2 -2)" fill="none" stroke="#272727" stroke-linecap="round" stroke-linejoin="round" stroke-width="2"/></svg>