<svg xmlns="http://www.w3.org/2000/svg" width="21.224" height="15.92" viewBox="0 0 21.224 15.92">
  <g id="Group_207" data-name="Group 207" transform="translate(-17.658 -16.396)">
    <path id="logo-youtube-svgrepo-com" d="M21.081,67.515a3.223,3.223,0,0,0-3.068-3.366c-2.3-.107-4.639-.149-7.033-.149h-.746c-2.388,0-4.735.041-7.031.149A3.23,3.23,0,0,0,.139,67.524C.036,69-.008,70.475-.006,71.951S.037,74.9.135,76.383A3.234,3.234,0,0,0,3.2,79.762c2.413.112,4.888.162,7.4.158s4.989-.044,7.4-.158a3.234,3.234,0,0,0,3.068-3.379c.1-1.48.145-2.956.141-4.436S21.181,68.994,21.081,67.515Zm-12.505,8.5V67.872l6.011,4.071Z" transform="translate(17.665 -47.604)" fill="#dff466"/>
  </g>
</svg>
